# xmcd
#
# Track frame offsets: 
#        150
#        8623
#        16454
#        24080
#        42915
#        50468
#        66033
#        76297
#        84033
#        91372
#        97301
#        104521
#        119056
#        133267
#        134511
#        135877
#        137714
#        139179
#        139689
#        140187
#        145705
#        161325
#        166230
#        173553
#        191723
#        195983
#        213128
#        231886
#        235910
#        244264
#        251965
#        263533
#        267462
#        272846
#        277900
#        278686
#        289150
#        312950
#
# Disc length: 4346 seconds
#
# Revision: 0
# Processed by: cddbd v1.5.2PL0 Copyright (c) Steve Scherf et al.
# Submitted via: ExactAudioCopy v0.95b4
#
DISCID=2a10f826
DTITLE=The Beatles  - AB  Road - Complete Purple Chick Set v1.1 Jan.08
DTITLE=Various Artist - D2  FLAC
DYEAR=1900
DGENRE=
TTITLE0=All Things Must Pass 8.35
TTITLE1=All Things Must Pass 8.36
TTITLE2=All Things Must Pass 8.37
TTITLE3=Mean Mister Mustard 8.38
TTITLE4=Don't Let Me Down 8.39
TTITLE5=All Things Must Pass 8.40
TTITLE6=Fools Like Me 8.41
TTITLE7=You Win Again 8.42
TTITLE8=Improvisation 8.43
TTITLE9=She Came In Through The Bathroom Window 8.44
TTITLE10=She Came In Through The Bathroom Window 8.45
TTITLE11=She Came In Through The Bathroom Window 8.46
TTITLE12=She Came In Through The Bathroom Window 8.47
TTITLE13=Right String, Wrong Yo-Yo 8.48
TTITLE14=Boogie Woogie 8.49
TTITLE15=Baa Baa Blacksheep 8.50
TTITLE16=Mr. Bassman 8.51
TTITLE17=Roll Announcement
TTITLE18=Slate Announcement
TTITLE19=Improvisation 8.52
TTITLE20=Improvisation 8.53
TTITLE21=I Me Mine 8.54
TTITLE22=Improvisation 8.55
TTITLE23=Maxwell's Silver Hammer 8.56
TTITLE24=Maxwell's Silver Hammer 8.57
TTITLE25=Maxwell's Silver Hammer 8.58
TTITLE26=Maxwell's Silver Hammer 8.59
TTITLE27=Maxwell's Silver Hammer 8.60
TTITLE28=Maxwell's Silver Hammer 8.61
TTITLE29=Maxwell's Silver Hammer 8.62
TTITLE30=Maxwell's Silver Hammer 8.63
TTITLE31=Maxwell's Silver Hammer 8.64
TTITLE32=Maxwell's Silver Hammer 8.65
TTITLE33=Maxwell's Silver Hammer 8.66
TTITLE34=Life Is What You Make It 8.67
TTITLE35=Maxwell's Silver Hammer 8.68
TTITLE36=Maxwell's Silver Hammer 8.69
TTITLE37=Improvisation 8.70
EXTD=
EXTT0=
EXTT1=
EXTT2=
EXTT3=
EXTT4=
EXTT5=
EXTT6=
EXTT7=
EXTT8=
EXTT9=
EXTT10=
EXTT11=
EXTT12=
EXTT13=
EXTT14=
EXTT15=
EXTT16=
EXTT17=
EXTT18=
EXTT19=
EXTT20=
EXTT21=
EXTT22=
EXTT23=
EXTT24=
EXTT25=
EXTT26=
EXTT27=
EXTT28=
EXTT29=
EXTT30=
EXTT31=
EXTT32=
EXTT33=
EXTT34=
EXTT35=
EXTT36=
EXTT37=
PLAYORDER=
